<svg data-v-423bf9ae="" xmlns="http://www.w3.org/2000/svg" viewBox="0 0 368 90" class="iconLeft"><!----><!----><!----><g data-v-423bf9ae="" id="8486faca-3519-4819-9d20-1b3741b8784a" fill="#DCEDC8" transform="matrix(5.676442414270142,0,0,5.676442414270142,121.45039183625286,0.8656571422396766)"><path d="M7.10 10.28L8.22 10.28L8.16 12.40L8.16 12.40Q7.57 12.73 6.86 12.89L6.86 12.89L6.86 12.89Q6.15 13.06 5.35 13.06L5.35 13.06L5.35 13.06Q4.27 13.06 3.37 12.76L3.37 12.76L3.37 12.76Q2.46 12.46 1.81 11.86L1.81 11.86L1.81 11.86Q1.15 11.26 0.78 10.36L0.78 10.36L0.78 10.36Q0.42 9.46 0.42 8.27L0.42 8.27L0.42 8.27Q0.42 7.08 0.81 6.18L0.81 6.18L0.81 6.18Q1.19 5.28 1.86 4.68L1.86 4.68L1.86 4.68Q2.53 4.07 3.46 3.77L3.46 3.77L3.46 3.77Q4.40 3.47 5.49 3.47L5.49 3.47L5.49 3.47Q6.16 3.47 6.77 3.62L6.77 3.62L6.77 3.62Q7.38 3.77 8.02 4.13L8.02 4.13L8.08 6.26L6.97 6.26L6.69 4.49L6.69 4.49Q6.10 4.24 5.50 4.24L5.50 4.24L5.50 4.24Q4.89 4.24 4.35 4.50L4.35 4.50L4.35 4.50Q3.81 4.76 3.41 5.27L3.41 5.27L3.41 5.27Q3.01 5.78 2.79 6.54L2.79 6.54L2.79 6.54Q2.56 7.29 2.56 8.27L2.56 8.27L2.56 8.27Q2.56 9.25 2.79 10.00L2.79 10.00L2.79 10.00Q3.01 10.75 3.41 11.26L3.41 11.26L3.41 11.26Q3.81 11.77 4.35 12.03L4.35 12.03L4.35 12.03Q4.89 12.29 5.50 12.29L5.50 12.29L5.50 12.29Q6.16 12.29 6.83 12.04L6.83 12.04L7.10 10.28ZM12.67 6.58L12.67 6.58L12.67 6.58Q11.20 6.58 11.20 9.48L11.20 9.48L11.20 9.48Q11.20 10.96 11.57 11.66L11.57 11.66L11.57 11.66Q11.94 12.36 12.67 12.36L12.67 12.36L12.67 12.36Q13.41 12.36 13.78 11.66L13.78 11.66L13.78 11.66Q14.14 10.96 14.14 9.48L14.14 9.48L14.14 9.48Q14.14 6.58 12.67 6.58ZM12.67 5.88L12.67 5.88L12.67 5.88Q13.37 5.88 14.01 6.13L14.01 6.13L14.01 6.13Q14.64 6.38 15.13 6.85L15.13 6.85L15.13 6.85Q15.62 7.32 15.92 7.99L15.92 7.99L15.92 7.99Q16.21 8.65 16.21 9.49L16.21 9.49L16.21 9.49Q16.21 10.33 15.95 10.99L15.95 10.99L15.95 10.99Q15.68 11.65 15.20 12.11L15.20 12.11L15.20 12.11Q14.73 12.57 14.08 12.82L14.08 12.82L14.08 12.82Q13.43 13.06 12.67 13.06L12.67 13.06L12.67 13.06Q11.91 13.06 11.26 12.82L11.26 12.82L11.26 12.82Q10.61 12.57 10.14 12.11L10.14 12.11L10.14 12.11Q9.67 11.65 9.40 10.99L9.40 10.99L9.40 10.99Q9.13 10.33 9.13 9.49L9.13 9.49L9.13 9.49Q9.13 8.65 9.42 7.99L9.42 7.99L9.42 7.99Q9.70 7.32 10.19 6.85L10.19 6.85L10.19 6.85Q10.68 6.38 11.33 6.13L11.33 6.13L11.33 6.13Q11.97 5.88 12.67 5.88ZM20.73 6.58L20.73 6.58L20.73 6.58Q19.26 6.58 19.26 9.48L19.26 9.48L19.26 9.48Q19.26 10.96 19.64 11.66L19.64 11.66L19.64 11.66Q20.01 12.36 20.73 12.36L20.73 12.36L20.73 12.36Q21.48 12.36 21.84 11.66L21.84 11.66L21.84 11.66Q22.20 10.96 22.20 9.48L22.20 9.48L22.20 9.48Q22.20 6.58 20.73 6.58ZM20.73 5.88L20.73 5.88L20.73 5.88Q21.43 5.88 22.07 6.13L22.07 6.13L22.07 6.13Q22.71 6.38 23.20 6.85L23.20 6.85L23.20 6.85Q23.69 7.32 23.98 7.99L23.98 7.99L23.98 7.99Q24.28 8.65 24.28 9.49L24.28 9.49L24.28 9.49Q24.28 10.33 24.01 10.99L24.01 10.99L24.01 10.99Q23.74 11.65 23.27 12.11L23.27 12.11L23.27 12.11Q22.79 12.57 22.14 12.82L22.14 12.82L22.14 12.82Q21.49 13.06 20.73 13.06L20.73 13.06L20.73 13.06Q19.98 13.06 19.33 12.82L19.33 12.82L19.33 12.82Q18.68 12.57 18.21 12.11L18.21 12.11L18.21 12.11Q17.74 11.65 17.47 10.99L17.47 10.99L17.47 10.99Q17.19 10.33 17.19 9.49L17.19 9.49L17.19 9.49Q17.19 8.65 17.48 7.99L17.48 7.99L17.48 7.99Q17.77 7.32 18.26 6.85L18.26 6.85L18.26 6.85Q18.75 6.38 19.39 6.13L19.39 6.13L19.39 6.13Q20.03 5.88 20.73 5.88ZM32.98 12.03L34.09 12.15L34.09 12.85L29.95 12.85L29.95 12.15L30.77 12.07L28.88 8.32L27.93 9.48L27.93 9.48Q27.93 10.12 27.93 10.76L27.93 10.76L27.93 10.76Q27.93 11.40 27.96 12.03L27.96 12.03L29.09 12.15L29.09 12.85L24.72 12.85L24.72 12.15L25.86 12.03L25.86 12.03Q25.89 11.16 25.89 10.28L25.89 10.28L25.89 10.28Q25.89 9.41 25.89 8.51L25.89 8.51L25.89 8.02L25.89 8.02Q25.89 7.14 25.89 6.27L25.89 6.27L25.89 6.27Q25.89 5.39 25.86 4.51L25.86 4.51L24.72 4.38L24.72 3.68L29.09 3.68L29.09 4.38L27.96 4.51L27.96 4.51Q27.93 5.38 27.93 6.25L27.93 6.25L27.93 6.25Q27.93 7.13 27.93 8.02L27.93 8.02L27.93 8.39L31.04 4.52L30.28 4.38L30.28 3.68L33.45 3.68L33.45 4.38L31.98 4.56L30.11 6.82L32.98 12.03ZM36.41 4.72L36.41 4.72L36.41 4.72Q35.94 4.72 35.60 4.40L35.60 4.40L35.60 4.40Q35.25 4.09 35.25 3.60L35.25 3.60L35.25 3.60Q35.25 3.11 35.60 2.80L35.60 2.80L35.60 2.80Q35.94 2.49 36.41 2.49L36.41 2.49L36.41 2.49Q36.90 2.49 37.24 2.80L37.24 2.80L37.24 2.80Q37.58 3.11 37.58 3.60L37.58 3.60L37.58 3.60Q37.58 4.09 37.24 4.40L37.24 4.40L37.24 4.40Q36.90 4.72 36.41 4.72ZM37.41 12.07L38.21 12.24L38.21 12.85L34.62 12.85L34.62 12.24L35.48 12.07L35.48 12.07Q35.49 11.54 35.49 10.95L35.49 10.95L35.49 10.95Q35.49 10.36 35.49 9.91L35.49 9.91L35.49 9.21L35.49 9.21Q35.49 8.64 35.48 8.25L35.48 8.25L35.48 8.25Q35.46 7.87 35.45 7.45L35.45 7.45L34.51 7.32L34.51 6.79L37.23 5.88L37.44 6.02L37.39 8.02L37.39 9.91L37.39 9.91Q37.39 10.36 37.39 10.96L37.39 10.96L37.39 10.96Q37.39 11.55 37.41 12.07L37.41 12.07ZM43.01 11.52L43.41 12.00L43.41 12.00Q43.15 12.40 42.64 12.70L42.64 12.70L42.64 12.70Q42.14 12.99 41.38 12.99L41.38 12.99L41.38 12.99Q40.53 12.99 40.03 12.57L40.03 12.57L40.03 12.57Q39.54 12.15 39.54 11.27L39.54 11.27L39.54 11.27Q39.54 10.84 39.54 10.52L39.54 10.52L39.54 10.52Q39.55 10.21 39.55 9.80L39.55 9.80L39.55 7.03L38.61 7.03L38.61 6.26L39.72 6.12L40.11 4.17L41.45 4.17L41.45 6.13L43.05 6.13L43.05 7.03L41.45 7.03L41.45 10.88L41.45 10.88Q41.45 11.40 41.66 11.63L41.66 11.63L41.66 11.63Q41.86 11.86 42.18 11.86L42.18 11.86L42.18 11.86Q42.32 11.86 42.54 11.79L42.54 11.79L42.54 11.79Q42.76 11.73 43.01 11.52L43.01 11.52Z"></path></g><!----><g data-v-423bf9ae="" id="0550dce8-a2b6-41d8-9c06-18f12c3cf6eb" transform="matrix(1.0362770949826674,0,0,1.0362770949826674,0.08274840143896256,-7.259404498754677)" stroke="none" fill="#DCEDC8"><path d="M50 94H29c-.417-3.568 3.298-4.952 3-5C.167 81.055 0 55 0 55h100s-.167 26.055-32 34c-.308.039 3.417 1.432 3 5H50zM6 52S-12.34 26.245 21 8c0 0 9.518-4.697 14 8 4.991 13.01 14 36 14 36h-9L27 20s-1.975-6.104-6-2c-4.34 4.259-16.746 14.374-5 34H6zm10-14h11c1.234.062.954 1.111 1 1-.046.111-3.108 8.478-9 9-2.97-.817-4-9.444-4-9 0-.444 0-1 1-1zm-1-6c.087.847 4.367-10.453 9-9 3.078 2.66 4.971 10.923 5 11-.029-.077.356 1-2 1h-9c-3.673-.088-2.913-2.153-3-3zm10 20s4.263-10 6-10c3.507 0 6 10 6 10H25zm26 0s6.031-6.958 7-15c1.034-7.757-.308-7.966 0-14 0 0 4.552-8.854 8 0 2.292 9.423 0 20 0 20l-3 9H51zm-6-25h1c9.665-.81 9 10 9 10-.01-.012-8.48.739-10-10zm24 3s-2.225-15 15-15c.9 15.754-15 15-15 15zm-3 22h30c9.449-9.885 0-17 0-17-19.386-8.52-30 17-30 17zm7-3s2.328-10.437 13-7c2.254 8.787-13 7-13 7z"></path></g><!----></svg>